<?xml version="1.0" encoding="utf-8"?>
<!-- Generator: Adobe Illustrator 15.0.0, SVG Export Plug-In  -->
<!DOCTYPE svg PUBLIC "-//W3C//DTD SVG 1.1//EN" "http://www.w3.org/Graphics/SVG/1.1/DTD/svg11.dtd" [
	<!ENTITY ns_flows "http://ns.adobe.com/Flows/1.0/">
]>
<svg version="1.1"
	 xmlns="http://www.w3.org/2000/svg" xmlns:xlink="http://www.w3.org/1999/xlink" xmlns:a="http://ns.adobe.com/AdobeSVGViewerExtensions/3.0/"
	 x="0px" y="0px" width="612px" height="792px" viewBox="-93.466 -36 612 792"
	 overflow="visible" enable-background="new -93.466 -36 612 792" xml:space="preserve">
<defs>
</defs>
<path fill-rule="evenodd" clip-rule="evenodd" d="M167.854,0.798c0.818,0.103,3.219,0.175,3.837,2.688
	c0.778,3.169-5.881,11.12-7.682,13.442c-7.697,9.938-15.532,19.519-24.577,29.57c-5.163,5.739-7.885,5.17-14.207,0.384
	c-2.504-1.894-5.264-4.135-6.914-5.377c-15.626-11.762-31.774-23.124-51.076-29.955c-1.862-0.658-4.491-0.862-4.609-3.072
	c-0.16-2.943,3.443-2.672,7.682-3.072c8.607-0.812,19.64-1.391,29.184-1.92c10.145-0.561,21.962-1.922,33.028-2.304
	c11.789-0.408,23.79-0.384,34.565-0.384C167.332,0.798,167.604,0.767,167.854,0.798z"/>
<path fill-rule="evenodd" clip-rule="evenodd" d="M404.032,175.15c-4.932,0.234-9.832-1.4-14.594-2.305
	c-14.283-2.708-28.984-5.974-41.861-10.752c-8.193-3.042-15.982-6.13-23.42-11.521c-5.906-4.277-15.42-10.617-14.215-20.738
	c0.721-6.003,6.377-10.233,12.678-14.209c16.469-10.401,32.578-21.491,34.178-46.468c1.074-16.841-6.826-30.201-15.363-38.404
	c-8.977-8.625-21.396-15.184-38.018-15.745c-18.727-0.633-34.071,6.802-43.396,16.13c-9.52,9.52-15.827,22.9-14.977,43.012
	c0.213,5.086,2.025,11.646,0,17.666c-2.832,8.412-10.113,11.779-23.427,10.752c-8.484-0.653-16.06-3.811-23.042-6.912
	c-16.995-7.547-31.04-17.292-46.085-28.802c-2.691-2.06-6.807-5.254-6.913-7.682c-0.144-3.324,5.77-8.329,8.45-11.52
	c8.729-10.405,20.093-22.383,26.497-33.028c3.021-5.021,4.525-12.896,10.369-14.209c4.145-0.932,10.576,0,16.13,0
	c26.595,0,52.571,0.841,77.573,1.536c30.896,0.859,58.236,3.062,88.328,6.529c8.801,1.014,17.863,2.124,28.039,3.841
	c7.15,1.206,21.977,2.938,23.809,7.68c0.844,2.182-0.344,6.127-0.77,9.601c-1.236,10.093-2.412,20.888-3.455,29.57
	c-1.645,13.626-3.545,26.438-4.994,39.172c-0.775,6.819-0.951,13.729-1.92,20.354c-2.324,15.923-3.557,32.497-6.145,49.156
	C407.065,170.609,407.233,173.697,404.032,175.15z"/>
<path fill-rule="evenodd" clip-rule="evenodd" d="M16.928,15.007c-0.568,3.06-3.069,5.272-4.226,8.065
	c-1.144,2.756-2.112,6.246-2.307,9.985c-0.478,9.232,2.319,19.175,0.77,28.418c-0.294,1.744-0.223,4.223-1.919,5.377
	c-4.738,0.267-4.179-5.649-4.607-9.601c-1.105-10.113-2.287-20.43-3.844-31.107c-0.312-2.15-0.938-4.96-0.766-6.145
	c0.612-4.256,6.173-5.285,10.754-6.529C12.471,13.014,15.865,12.463,16.928,15.007z"/>
<path fill-rule="evenodd" clip-rule="evenodd" d="M38.817,18.849c8.595-1.092,19.189,1.891,27.265,4.991
	c18.771,7.207,33.641,18.467,49.542,30.339c2.994,2.236,7.829,4.933,8.063,7.682c0.269,3.139-3.647,6.299-6.528,9.601
	c-7.767,8.904-15.249,16.919-21.89,26.498c-7.967,11.49-18.434,27.016-18.434,45.701c0,14.661,8.904,25.25,20.736,28.418
	c7.745,2.074,16.352,0.666,25.347,0.384c7.812-0.245,15.738,0.48,23.427,3.455c15.971,6.182,31.169,23.196,25.346,45.701
	c-2.853,11.031-11.307,19.558-19.201,24.194c-5.845,3.433-12.214,5.622-20.739,6.144c-15.839,0.969-28.378-5.635-36.098-13.825
	c-6.325-6.707-10.369-16.958-18.817-22.658c-4.678-3.156-11.001-6.357-17.667-6.529c-10.592-0.275-19.383,5.279-25.728,11.137
	c-1.381,1.272-3.878,6.269-7.301,4.993c-2.693-1.006-2.731-9.709-3.456-15.362c-2.138-16.695-3.619-34.721-5.376-50.692
	c-1.831-16.693-3.956-32.894-6.144-50.309c-0.694-5.535-2.557-12.195-1.919-16.513c0.45-3.062,3.25-5.622,4.994-8.064
	c5.185-7.268,9.454-16.719,9.601-29.187c0.094-8.076-3-20.188,0-26.882C26.341,22.477,32.639,19.631,38.817,18.849z"/>
<path fill-rule="evenodd" clip-rule="evenodd" d="M295.735,27.681c14.09-1.38,28.027,2.892,36.867,11.137
	c7.818,7.293,14.77,19.858,11.52,34.947c-2.852,13.256-11.59,21.516-20.734,27.266c-9.744,6.126-20.963,11.239-24.582,23.043
	c-3.789,12.37,2.568,21.908,8.449,28.034c18.008,18.744,46.311,25.145,76.809,31.875c5.744,1.269,11.975,1.677,13.443,4.61
	c1.445,2.886-0.836,8.857-1.924,12.673c-3.656,12.879-6.963,25.037-11.52,36.867c-3.02,7.84-6.777,14.797-11.902,20.354
	c-5.73,6.21-14.531,15.422-25.732,12.289c-9.746-2.725-14.451-11.718-19.584-18.817c-2.863-3.957-6.568-7.383-10.758-10.752
	c-7.531-6.063-16.139-10.931-30.721-12.29c-24.803-2.311-45.579,10.026-55.687,29.187c-5.45,10.338-6.375,24.277-3.068,36.1
	c3.019,10.799,9.981,20.014,17.282,25.729c8.307,6.507,17.389,10.682,30.722,12.29c15.657,1.888,28.31-3.578,38.017,2.303
	c2.037,1.233,6.037,5.693,6.912,8.834c2.457,8.798-1.406,19.392-4.605,26.112c-3.627,7.612-7.645,13.451-12.289,19.589
	c-4.332,5.719-8.414,11.819-13.826,18.045c-2.389,2.75-4.727,5.17-7.683,8.451c-2.319,2.581-5.101,7.057-8.444,7.301
	c-3.025,0.212-7.727-3.907-10.758-6.15c-9.676-7.151-19.602-14.276-29.57-20.353c-14.102-8.595-29.436-17.408-49.156-17.664
	c-7.589-0.1-15.058,1.844-20.736,5.764c-4.685,3.225-9.267,9.057-10.754,15.745c-1.635,7.362-0.266,15.438,0,22.271
	c0.35,8.963-0.476,16.901-4.991,23.809c-8.47,12.951-25.605,21.664-42.245,19.971c-16.945-1.72-31.928-11.221-37.635-25.347
	c-2.325-5.75-3.962-14.695-2.306-21.89c2.447-10.619,8.429-17.482,15.745-23.039c6.988-5.313,15.883-8.695,22.658-15.746
	c4.906-5.105,9.826-14.926,6.913-25.731c-3.685-13.679-18.911-23.31-31.106-29.571c-9.135-4.691-21.623-8.487-33.793-11.52
	c-4.051-1.011-8.62-1.521-10.755-4.225c-1.984-2.516-2.216-9.187-2.688-13.825c-1.01-9.873-2.053-20.013-3.072-29.955
	c-0.55-5.36-1.8-11.901-0.769-16.514c1.272-5.699,5.919-10.904,9.985-15.745c4.473-5.323,8.991-9.35,14.211-11.137
	c14.52-4.98,22.596,7.883,28.033,15.361c9.704,13.339,23.603,25.238,45.317,26.115c23.058,0.93,40.447-8.61,50.691-23.427
	c4.998-7.227,8.776-16.311,8.448-28.418c-0.613-22.715-13.383-37.552-29.568-44.932c-10.345-4.716-19.796-6.966-33.797-6.145
	c-7.507,0.441-15.995,2.243-23.043-1.151c-4.976-2.399-7.388-6.065-8.447-9.217c-2.819-8.388,1.149-18.994,4.225-26.115
	c6.288-14.576,15.515-25.288,26.115-37.636c1.841-2.146,4.682-5.98,7.295-8.832c2.403-2.625,5.644-6.763,8.832-6.913
	c3.553-0.167,8.562,4.729,11.907,7.297c10.782,8.284,23.171,16.333,34.562,23.041c7.754,4.568,16.654,8.537,27.268,11.137
	c9.559,2.344,22.179,4.099,32.255-0.383c6.4-2.847,10.988-8.169,13.444-14.211c5.007-12.334-1.48-28.895,3.457-43.012
	C263.952,40.018,278.803,29.34,295.735,27.681z"/>
<path fill-rule="evenodd" clip-rule="evenodd" d="M274.228,241.205c20.364-2.177,34.041,7.285,43.016,17.666
	c4.607,5.33,7.826,12.807,13.82,17.666c8.107,6.564,21.133,9.135,32.26,4.224c7.307-3.222,14.42-10.095,19.59-16.898
	c3.068-4.041,7.281-10.713,10.369-17.281c1.668-3.547,1.6-5.317,3.838-4.993c3.344,0.488,1.193,9.504,0.77,13.058
	c-0.656,5.507-1.676,11.901-1.92,14.209c-5.275,49.731-9.957,96.702-15.744,145.551c-1.689,14.201-2.676,28.565-4.613,43.779
	c-0.682,5.369-0.895,11.264-2.688,13.438c-4.557,5.538-19.891,2.125-27.266-0.381c-8.264-2.807-16.195-6.757-22.658-10.751
	c-11.752-7.276-18.934-12.714-29.572-20.74c-2.769-2.094-8.193-4.737-8.443-8.062c-0.188-2.419,2.762-5.413,6.144-9.22
	c7.169-8.089,14.265-16.839,20.353-24.965c8.051-10.732,16.988-24.696,19.582-41.088c3.32-20.944-7.725-34.727-25.727-36.485
	c-8.67-0.845-15.289,0.749-22.277,0.769c-17.295,0.05-32.291-7.98-39.936-18.434c-7.193-9.831-8.993-29.293-1.924-41.091
	c2.975-4.958,8.912-10.642,14.213-13.825C260.163,244.493,266.964,241.981,274.228,241.205z"/>
<path fill-rule="evenodd" clip-rule="evenodd" d="M37.664,324.541c1.96-0.574,11.011,2.105,14.211,3.072
	c16.617,5.018,33.391,11.776,42.625,23.426c2.348,2.957,4.595,6.646,4.61,10.369c0.028,7.137-6.744,12.588-11.52,15.744
	c-6.554,4.331-11.607,6.494-16.515,10.751c-5.172,4.487-8.794,8.794-12.288,14.982c-3.166,5.601-6.275,12.645-6.532,20.733
	c-0.812,25.814,14.802,42.666,33.412,50.311c12.701,5.219,29.432,6.395,45.317-0.382c17.849-7.619,32.644-22.539,32.644-48.772
	c0-13.183-2.888-24.315,5.76-30.341c7.16-4.994,20.761-3.663,29.568-1.15c9.307,2.65,15.857,6.626,23.81,11.133
	c10.451,5.919,20.764,13.389,31.49,21.127c2.388,1.719,8.626,6.119,8.838,8.444c0.27,3.025-4.519,6.938-6.912,9.601
	c-7.295,8.133-16.214,18.821-21.89,26.884c-8.775,12.464-18.659,29.209-18.822,46.086c-0.138,14.308,9.303,24.471,20.741,27.652
	c6.2,1.726,12.357,1.175,19.971,0.763c15.395-0.819,27.421,1.193,36.865,7.301c12.926,8.356,24.877,28.571,14.596,49.154
	c-4.92,9.838-17.539,19.964-31.109,22.277c-12.401,2.106-25.596-0.856-35.716-8.07c-4.807-3.425-8.606-7.65-12.288-12.288
	c-3.569-4.488-6.576-9.663-10.751-13.438c-7.615-6.889-19.382-12.026-32.261-6.913c-7.251,2.875-14.164,9.638-19.587,16.132
	c-13.938,16.677-20.186,37.697-26.499,62.981c-1.097,4.388-2.019,10.744-5.76,11.901c-2.835,0.881-13.917-2.22-17.667-3.069
	c-12.771-2.906-21.608-5.169-33.794-9.22c-5.267-1.75-11.985-3.426-13.823-7.295c-1.062-2.231-1.197-7.231-1.538-10.751
	c-0.793-8.188-0.943-13.525-1.918-21.896c-0.413-3.506-1.481-8.288-0.77-11.132c0.763-3.044,5.538-6.232,7.295-7.683
	c10.52-8.663,20.146-22.295,18.052-43.778c-1.066-10.92-6.813-20.502-12.674-26.884c-2.509-2.731-6.072-6.057-10.754-9.22
	c-3.472-2.344-9.551-3.775-11.52-8.063c-1.194-2.594-1.019-7.338-1.538-11.907c-5.763-50.61-11.548-100.99-16.514-153.611
	c-0.287-3.04-0.775-7.4-1.15-11.905c-0.34-4.082-1.509-9.421-0.384-11.137C35.93,325.004,36.917,324.758,37.664,324.541z"/>
<path fill-rule="evenodd" clip-rule="evenodd" d="M273.847,443.208c4.019-1.094,7.943,2.976,11.139,5.375
	c8.588,6.464,19.102,14.183,28.033,19.584c7.02,4.25,13.133,8.25,20.74,11.138c8.262,3.145,16.75,6.313,24.576,6.913
	c3.701,0.288,10.119-1.794,12.67,1.538c1.75,2.275,0.281,7.082-0.381,12.67c-3.77,31.771-6.75,64.499-10.369,96.396
	c-1.045,9.213-2.27,18.339-3.076,27.652c-0.762,8.895-2.449,17.67-3.068,27.265c-0.852,13.102-2.244,27.972-3.844,41.86
	c-0.594,5.176-0.719,9.926-2.301,12.67c-1.65,2.856-4.719,3.882-9.602,4.994c-27.789,6.345-59.067,6.707-91.783,8.451
	c-17.264,0.918-38.361-0.738-56.068,0c-11.148,0.462-27.878-0.438-40.71-1.538c-5.295-0.456-9.639-0.025-11.139-3.075
	c-0.925-1.882,0.368-5.569,1.153-8.444c4.041-14.795,7.879-29.185,11.522-44.167c4.288-17.651,9.426-34.228,18.434-48.386
	c5.328-8.382,13.444-18.977,23.427-20.739c11.561-2.044,20.096,8.389,24.96,15.364c10.183,14.589,23.765,27.103,48.392,27.646
	c32.391,0.719,61.736-24.496,56.068-59.906c-2.338-14.589-10.738-25.577-20.74-32.646c-9.701-6.856-23.883-11.463-40.71-10.751
	c-5.788,0.244-15.552,2.45-23.421-0.769c-6.288-2.575-10.726-7.913-9.988-18.433c0.544-7.732,3.601-15.589,6.913-21.89
	c6.232-11.852,15.952-23.189,24.577-33.028c4.625-5.275,8.539-12.101,13.826-15.364
	C273.364,443.414,273.384,443.333,273.847,443.208z"/>
<path fill-rule="evenodd" clip-rule="evenodd" d="M56.481,534.991c0.938-0.725,1.862-1.469,3.072-1.919
	c0.328-0.068,0.362,0.15,0.384,0.382c9.545,6.75,19.446,17.345,17.664,35.715c-0.394,4.088-2.075,8.77-4.606,13.445
	c-1.568,2.895-5.263,9.569-8.45,9.214c-3.782-0.419-2.944-8.032-3.457-13.058C59.575,563.793,57.284,550.036,56.481,534.991z"/>
<path fill-rule="evenodd" clip-rule="evenodd" d="M121.769,715.87c-11.207-0.888-24.137-2.406-35.331-4.987
	c-5.998-1.388-10.852-2.595-13.442-6.532c-1.037-9.845-2.216-19.546-2.688-29.953c0.981-0.85,2.344-3.406,4.226-2.688
	c9.838,3.731,27.34,8.119,41.86,11.133c5.612,1.168,14.27,2.112,15.357,6.531c0.431,1.75-0.932,5.025-1.535,7.295
	C128.312,703.825,127.513,712.27,121.769,715.87z"/>
</svg>
